<svg xmlns="http://www.w3.org/2000/svg"  viewBox="0 0 47.02 63.756">
  <g id="bin" transform="translate(-2283.18 -335.686)">
    <path id="Path_215" data-name="Path 215" d="M2322.539,374.026l1.557-19.176h1.464a1.868,1.868,0,0,0,1.843-2.175l-.8-4.756a5.4,5.4,0,0,0-5.337-4.519H2314.6v-1.193a6.535,6.535,0,0,0-6.535-6.521h-5.516a6.535,6.535,0,0,0-6.535,6.521V343.4h-6.674a5.393,5.393,0,0,0-5.337,4.518l-.795,4.756a1.867,1.867,0,0,0,1.842,2.175h1.465l2.644,32.561a7.334,7.334,0,0,0,7.316,6.732h9.679a13.365,13.365,0,1,0,16.388-20.117Zm-22.792-31.819a2.794,2.794,0,0,1,2.8-2.785h5.516a2.8,2.8,0,0,1,2.8,2.785V343.4h-11.114Zm-12.493,8.908.431-2.58a1.669,1.669,0,0,1,1.652-1.4h31.934a1.67,1.67,0,0,1,1.652,1.4l.432,2.58Zm16.9,39.292h-7.682a3.616,3.616,0,0,1-3.592-3.3l-2.62-32.258h30.088l-1.466,18.051a13.388,13.388,0,0,0-15.445,13.191A13.256,13.256,0,0,0,2304.154,390.407Zm12.664,5.3a9.614,9.614,0,1,1,9.647-9.614A9.64,9.64,0,0,1,2316.818,395.706Z" fill="#ff3c40"/>
    <path id="Path_216" data-name="Path 216" d="M2321.9,381.027a1.869,1.869,0,0,0-2.642,0l-2.438,2.431-2.438-2.431a1.868,1.868,0,0,0-2.638,2.645l2.431,2.424-2.431,2.424a1.868,1.868,0,0,0,2.638,2.645l2.438-2.431,2.438,2.431a1.868,1.868,0,0,0,2.638-2.645l-2.43-2.424,2.43-2.424A1.868,1.868,0,0,0,2321.9,381.027Z" fill="#ff3c40"/>
  </g>
</svg>
