<svg xmlns="http://www.w3.org/2000/svg" width="40" height="40" viewBox="0 0 79 79">
  <g id="coupon" transform="translate(-82.408 -307.5)">
    <rect id="coupon-2" data-name="coupon" width="100%" height="100%" rx="19.628" transform="translate(82.408 307.5)" fill="#f6f8fa"/>
    <g id="Group_83" data-name="Group 83">
      <path id="Path_159" data-name="Path 159" d="M140.813,364.451H103a4.368,4.368,0,0,1-4.363-4.363v-7.271a1.453,1.453,0,0,1,1.454-1.454,4.363,4.363,0,0,0,0-8.726,1.453,1.453,0,0,1-1.454-1.454v-7.271A4.368,4.368,0,0,1,103,329.549h37.81a4.367,4.367,0,0,1,4.362,4.363v7.271a1.453,1.453,0,0,1-1.454,1.454,4.363,4.363,0,0,0,0,8.726,1.453,1.453,0,0,1,1.454,1.454v7.271a4.367,4.367,0,0,1-4.362,4.363Zm-39.265-10.326v5.963A1.456,1.456,0,0,0,103,361.542h37.81a1.455,1.455,0,0,0,1.454-1.454v-5.963a7.272,7.272,0,0,1,0-14.25v-5.963a1.455,1.455,0,0,0-1.454-1.454H103a1.456,1.456,0,0,0-1.455,1.454v5.963a7.272,7.272,0,0,1,0,14.25Z" fill="#666"/>
      <path id="Path_160" data-name="Path 160" d="M116.184,358.1l8.722-23.259,2.724,1.021-8.723,23.26Z" fill="#666"/>
      <path id="path-1" d="M115.028,347.49a4.363,4.363,0,1,1,4.363-4.363,4.368,4.368,0,0,1-4.363,4.363Zm0-5.817a1.454,1.454,0,1,0,1.454,1.454A1.455,1.455,0,0,0,115.028,341.673Z" fill="#666"/>
      <path id="path-1-2" data-name="path-1" d="M130.06,356.509a4.363,4.363,0,1,1,4.363-4.363A4.368,4.368,0,0,1,130.06,356.509Zm0-5.817a1.454,1.454,0,1,0,1.454,1.454A1.455,1.455,0,0,0,130.06,350.692Z" fill="#666"/>
    </g>
  </g>
</svg>
