<svg xmlns="http://www.w3.org/2000/svg" width="68.395" height="68.396" viewBox="0 0 68.395 68.396">
  <g id="cvv" transform="translate(-5952 -6798.802)">
    <path id="Path_460" data-name="Path 460" d="M6019.591,6858.182l-6.867-11.894a18,18,0,0,0-.611-24.1v-17.374a6.019,6.019,0,0,0-6.011-6.012h-48.091a6.019,6.019,0,0,0-6.011,6.012v26.717a6.018,6.018,0,0,0,6.011,6.011h23.221a18.041,18.041,0,0,0,21.086,14.767l6.861,11.884a6.011,6.011,0,1,0,10.412-6.011Zm-63.583-53.368a2.005,2.005,0,0,1,2-2H6006.1a2.006,2.006,0,0,1,2,2v3.339h-52.1Zm25.01,28.72h-23.007a2.006,2.006,0,0,1-2-2v-19.37h52.1V6819a18.027,18.027,0,0,0-27.088,14.53Zm18,15.07a14.027,14.027,0,1,1,14.027-14.026A14.042,14.042,0,0,1,5999.021,6848.6Zm16.366,14.319a2.006,2.006,0,0,1-2.737-.734l-6.4-11.09a18.062,18.062,0,0,0,3.467-2.009l6.407,11.1a2.006,2.006,0,0,1-.734,2.737Z" fill="#ff3c40"/>
    <path id="Path_461" data-name="Path 461" d="M6005.992,6834.295l2.2-2.921a1.336,1.336,0,1,0-2.133-1.608l-1.748,2.317-1.761-2.321a1.336,1.336,0,0,0-2.128,1.615l2.218,2.923-2.519,3.341a1.336,1.336,0,1,0,2.133,1.608l2.065-2.738,2.186,2.882a1.336,1.336,0,0,0,2.128-1.616Z" fill="#ff3c40"/>
    <path id="Path_462" data-name="Path 462" d="M5995.4,6834.3l2.217-2.922a1.336,1.336,0,1,0-2.128-1.615l-1.761,2.32-1.747-2.317a1.336,1.336,0,0,0-2.134,1.608l2.2,2.921-2.643,3.483a1.336,1.336,0,0,0,2.128,1.615l2.187-2.882,2.065,2.738a1.336,1.336,0,1,0,2.133-1.608Z" fill="#ff3c40"/>
    <path id="Path_463" data-name="Path 463" d="M5971.37,6817.5h-5.344a6.011,6.011,0,0,0,0,12.023h5.344a6.011,6.011,0,0,0,0-12.023Zm0,8.015h-5.344a2,2,0,0,1,0-4.007h5.344a2,2,0,1,1,0,4.007Z" fill="#ff3c40"/>
  </g>
</svg>
