<svg xmlns="http://www.w3.org/2000/svg" viewBox="0 0 83.965 61.206">
  <g id="deposite" transform="translate(-3871.157 -494.583)">
    <g id="Group_192" data-name="Group 192">
      <path id="Path_252" data-name="Path 252" d="M3948.382,503.1a9.246,9.246,0,0,0-9.205-8.517h-43.214a9.246,9.246,0,0,0-9.236,9.236v42.734a9.246,9.246,0,0,0,9.236,9.236h49.923a9.246,9.246,0,0,0,9.236-9.236V511.99a9.25,9.25,0,0,0-6.74-8.89Zm-52.419-4.2h43.214a4.93,4.93,0,0,1,4.8,3.857h-48.018a9.176,9.176,0,0,0-4.921,1.426v-.361A4.927,4.927,0,0,1,3895.963,498.9Zm49.923,52.578h-49.923a4.927,4.927,0,0,1-4.921-4.922V511.99a4.926,4.926,0,0,1,4.921-4.921h49.923a4.926,4.926,0,0,1,4.921,4.921v7.529h-13.756a9.887,9.887,0,1,0,0,19.773h13.756v7.261a4.927,4.927,0,0,1-4.921,4.922Zm4.921-16.5h-13.756a5.572,5.572,0,0,1,0-11.144h13.756Z" fill="#fff"/>
      <circle id="Ellipse_31" data-name="Ellipse 31" cx="2.246" cy="2.246" r="2.246" transform="translate(3935.605 527.323)" fill="#ff3c40"/>
    </g>
    <g id="Group_194" data-name="Group 194">
      <g id="Group_193" data-name="Group 193">
        <circle id="Ellipse_32" data-name="Ellipse 32" cx="15.5" cy="15.5" r="15.5" transform="translate(3873.157 522.789)" fill="#fff"/>
        <path id="Path_253" data-name="Path 253" d="M3888.657,555.789a17.5,17.5,0,1,1,17.5-17.5A17.52,17.52,0,0,1,3888.657,555.789Zm0-31a13.5,13.5,0,1,0,13.5,13.5A13.516,13.516,0,0,0,3888.657,524.789Z" fill="#ff3c40"/>
      </g>
      <path id="Path_254" data-name="Path 254" d="M3895.076,536.289h-4.419v-4.418a2,2,0,0,0-4,0v4.418h-4.419a2,2,0,0,0,0,4h4.419v4.419a2,2,0,0,0,4,0v-4.419h4.419a2,2,0,0,0,0-4Z" fill="#ff3c40"/>
    </g>
  </g>
</svg>
