<svg xmlns="http://www.w3.org/2000/svg" viewBox="0 0 68.395 68.396">
  <g id="facebook" transform="translate(-1499.605 -4017.802)">
    <path id="Path_541" data-name="Path 541" d="M1559.451,4017.8h-51.3a8.558,8.558,0,0,0-8.549,8.55v51.3a8.558,8.558,0,0,0,8.549,8.55h51.3a8.558,8.558,0,0,0,8.549-8.55v-51.3A8.558,8.558,0,0,0,1559.451,4017.8Z" fill="#1976d2"/>
    <path id="Path_542" data-name="Path 542" d="M1557.313,4052h-10.687v-8.549c0-2.36,1.916-2.138,4.275-2.138h4.275v-10.687h-8.55a12.824,12.824,0,0,0-12.824,12.825V4052h-8.549v10.687h8.549V4086.2h12.824v-23.511h6.413Z" fill="#fafafa"/>
  </g>
</svg>
