<svg xmlns="http://www.w3.org/2000/svg" viewBox="0 0 68.395 68.396">
  <g id="google" transform="translate(-1499.605 -4232.802)">
    <path id="Path_543" data-name="Path 543" d="M1514.763,4274.134l-2.381,8.888-8.7.184a34.261,34.261,0,0,1-.252-31.933h0l7.747,1.42,3.394,7.7a20.4,20.4,0,0,0,.192,13.741Z" fill="#fbbb00"/>
    <path id="Path_544" data-name="Path 544" d="M1567.4,4260.611a34.186,34.186,0,0,1-12.19,33.058l0,0-9.758-.5-1.381-8.621a20.38,20.38,0,0,0,8.77-10.408h-18.287v-13.529H1567.4Z" fill="#518ef8"/>
    <path id="Path_545" data-name="Path 545" d="M1555.21,4293.667l0,0a34.209,34.209,0,0,1-51.532-10.463l11.083-9.071a20.338,20.338,0,0,0,29.308,10.413Z" fill="#28b446"/>
    <path id="Path_546" data-name="Path 546" d="M1555.631,4240.675l-11.079,9.07a20.336,20.336,0,0,0-29.981,10.648l-11.141-9.12h0a34.205,34.205,0,0,1,52.2-10.6Z" fill="#f14336"/>
  </g>
</svg>
