<svg xmlns="http://www.w3.org/2000/svg"  viewBox="0 0 68.395 68.396">
  <g id="historyIcon" transform="translate(-3871.872 -1056.267)">
    <path id="Path_251" data-name="Path 251" d="M3908.741,1074.7v14.657l9.727,9.726a2.672,2.672,0,1,1-3.779,3.778l-10.508-10.509a2.671,2.671,0,0,1-.783-1.889V1074.7a2.672,2.672,0,1,1,5.343,0Zm7.837-18.435h-21.017a23.61,23.61,0,0,0-15.534,5.808v-3.136a2.672,2.672,0,1,0-5.343,0v10.509a2.679,2.679,0,0,0,2.672,2.672h10.508a2.672,2.672,0,0,0,0-5.344h-5.054a18.41,18.41,0,0,1,12.751-5.165h21.017a18.367,18.367,0,0,1,18.346,18.345v21.018a18.366,18.366,0,0,1-18.346,18.345h-21.017a18.365,18.365,0,0,1-18.345-18.345v-10.509a2.672,2.672,0,1,0-5.344,0v10.509a23.716,23.716,0,0,0,23.689,23.689h21.017a23.715,23.715,0,0,0,23.689-23.689v-21.018A23.715,23.715,0,0,0,3916.578,1056.267Z" fill="#FF3C40"/>
  </g>
</svg>
