<svg xmlns="http://www.w3.org/2000/svg" viewBox="0 0 26.674 36.827">
  <g id="location" transform="translate(-4000.326 -2683.567)">
    <g id="Group_385" data-name="Group 385">
      <g id="Group_382" data-name="Group 382">
        <g id="Group_381" data-name="Group 381">
          <path id="Path_516" data-name="Path 516" d="M4013.663,2683.567a13.353,13.353,0,0,0-13.337,13.338c0,9.126,11.935,22.525,12.443,23.091a1.2,1.2,0,0,0,1.787,0c.509-.566,12.444-13.965,12.444-23.091A13.352,13.352,0,0,0,4013.663,2683.567Zm0,33.787c-4.017-4.772-10.936-14.186-10.936-20.449a10.935,10.935,0,1,1,21.871,0C4024.6,2703.169,4017.681,2712.581,4013.663,2717.354Z" fill="#e83131"/>
        </g>
      </g>
      <g id="Group_384" data-name="Group 384">
        <g id="Group_383" data-name="Group 383">
          <path id="Path_517" data-name="Path 517" d="M4013.663,2690.194a6.71,6.71,0,1,0,6.71,6.711A6.718,6.718,0,0,0,4013.663,2690.194Zm0,11.019a4.308,4.308,0,1,1,4.308-4.308A4.314,4.314,0,0,1,4013.663,2701.213Z" fill="#e83131"/>
        </g>
      </g>
    </g>
  </g>
</svg>
