<svg xmlns="http://www.w3.org/2000/svg" viewBox="0 0 68.623 68.396">
  <g id="logoutIcon" transform="translate(-3871.758 -2226.267)">
    <g id="Group_197" data-name="Group 197">
      <g id="Group_196" data-name="Group 196">
        <path id="Path_255" data-name="Path 255" d="M3905.956,2288.963h-25.649a2.849,2.849,0,0,1-2.849-2.849v-51.3a2.851,2.851,0,0,1,2.849-2.85h25.649a2.85,2.85,0,0,0,0-5.7h-25.649a8.56,8.56,0,0,0-8.549,8.55v51.3a8.56,8.56,0,0,0,8.549,8.55h25.649a2.85,2.85,0,0,0,0-5.7Z" fill="#fff"/>
      </g>
    </g>
    <g id="Group_199" data-name="Group 199">
      <g id="Group_198" data-name="Group 198">
        <path id="Path_256" data-name="Path 256" d="M3939.532,2258.436l-17.327-17.1a2.849,2.849,0,0,0-4,4.058l12.383,12.22h-33.181a2.85,2.85,0,0,0,0,5.7h33.181l-12.383,12.22a2.849,2.849,0,1,0,4,4.058l17.327-17.1a2.849,2.849,0,0,0,0-4.058Z" fill="#fff"/>
      </g>
    </g>
  </g>
</svg>
