<svg xmlns="http://www.w3.org/2000/svg" viewBox="0 0 68.395 47.022">
  <g id="master" transform="translate(-1459.023 -588.189)">
    <path id="Rectangle_59" data-name="Rectangle 59" d="M7.481,0H60.915A7.48,7.48,0,0,1,68.4,7.48V39.541a7.481,7.481,0,0,1-7.481,7.481H7.48A7.48,7.48,0,0,1,0,39.541V7.481A7.481,7.481,0,0,1,7.481,0Z" transform="translate(1459.023 588.189)" fill="#293688"/>
    <g id="Group_103" data-name="Group 103">
      <path id="Path_199" data-name="Path 199" d="M1493.227,596.351a16.974,16.974,0,0,1,3.516-2.033,14.714,14.714,0,0,1,15.869,3.124,14.677,14.677,0,0,1,.822,20.047,14.139,14.139,0,0,1-9.319,4.985,14.4,14.4,0,0,1-10.529-2.759,1.111,1.111,0,0,0-.362-.234.241.241,0,0,1,0-.053,12.887,12.887,0,0,0,2.115-2.022,14.269,14.269,0,0,0,2.621-4.492,15.215,15.215,0,0,0,.827-3.856,14.484,14.484,0,0,0-.115-3.416,14.136,14.136,0,0,0-1.826-5.113,14.979,14.979,0,0,0-3.166-3.79c-.136-.117-.253-.287-.456-.32Z" fill="#f69d1f"/>
      <path id="Path_200" data-name="Path 200" d="M1493.226,619.428a.241.241,0,0,0,0,.053,14.633,14.633,0,0,1-22.879-6.742c-1.949-5.674-.717-10.828,3.435-15.17a13.882,13.882,0,0,1,9.475-4.3,14.352,14.352,0,0,1,9.972,3.085v.068a9.226,9.226,0,0,0-1.182,1.022,14.887,14.887,0,0,0-2.251,2.84,14.625,14.625,0,0,0,1.873,17.7A19.635,19.635,0,0,0,1493.226,619.428Z" fill="#ea1d24"/>
      <path id="Path_201" data-name="Path 201" d="M1472.785,626.488a1.6,1.6,0,0,1,2.471.108,1.583,1.583,0,0,1,1.45-.64,1.433,1.433,0,0,1,1.452,1.437c.018.78,0,1.561.008,2.341,0,.2-.064.239-.249.242-.637.011-.637.018-.637-.616,0-.557.02-1.116-.008-1.671-.033-.634-.337-.93-.872-.914a.91.91,0,0,0-.9.992c-.008.635-.01,1.27,0,1.9,0,.219-.033.312-.284.306-.591-.013-.582,0-.594-.594a12.354,12.354,0,0,0-.051-1.934.739.739,0,0,0-.648-.665.925.925,0,0,0-.949.419,1.355,1.355,0,0,0-.136.647c0,.6-.01,1.2.006,1.806.006.235-.037.331-.3.322-.583-.019-.583,0-.583-.575,0-1.015.011-2.029-.008-3.043-.005-.273.082-.356.334-.317a.584.584,0,0,0,.167,0C1472.729,626.008,1472.912,626.067,1472.785,626.488Z" fill="#fff"/>
      <path id="Path_202" data-name="Path 202" d="M1513.839,626.423c0-.592.01-1.137-.005-1.681-.006-.213.065-.259.264-.259.61,0,.61-.01.61.6,0,1.514-.007,3.029.007,4.544,0,.277-.066.392-.346.342a.518.518,0,0,0-.167,0c-.286.05-.428-.05-.349-.442a1.664,1.664,0,0,1-1.573.511,1.8,1.8,0,0,1-1.137-.644,2.23,2.23,0,0,1,.045-2.826A1.913,1.913,0,0,1,1513.839,626.423Zm.053,1.6a1.172,1.172,0,0,0-1.149-1.249,1.237,1.237,0,0,0-.032,2.47A1.174,1.174,0,0,0,1513.892,628.024Z" fill="#fff"/>
      <path id="Path_203" data-name="Path 203" d="M1482.055,629.607a1.908,1.908,0,0,1-2.677-.2,2.233,2.233,0,0,1,.017-2.827,1.909,1.909,0,0,1,2.635-.19c.094-.1-.075-.31.1-.335a3.5,3.5,0,0,1,.765.006c.064.005.041.114.042.177,0,1.17,0,2.34,0,3.51,0,.179-.06.24-.231.22a1.2,1.2,0,0,0-.268,0C1482.175,630,1481.978,629.961,1482.055,629.607Zm-1.1-2.832a1.235,1.235,0,1,0,1.164,1.239A1.181,1.181,0,0,0,1480.951,626.775Z" fill="#fff"/>
      <path id="Path_204" data-name="Path 204" d="M1505.977,629.591a1.924,1.924,0,0,1-2.7-.187,2.234,2.234,0,0,1,.037-2.827,1.9,1.9,0,0,1,2.612-.192c.125-.081-.055-.307.124-.327a3.9,3.9,0,0,1,.763.011c.064.005.04.116.04.18,0,1.169,0,2.338.005,3.507,0,.189-.075.232-.238.217a1.585,1.585,0,0,0-.267,0C1506.115,629.993,1505.9,629.993,1505.977,629.591Zm.037-1.594a1.146,1.146,0,0,0-1.165-1.223,1.235,1.235,0,0,0,.021,2.466A1.149,1.149,0,0,0,1506.014,628Z" fill="#fff"/>
      <path id="Path_205" data-name="Path 205" d="M1493.847,628.339c-.412,0-.824.007-1.236,0-.184,0-.2.057-.145.215a1.156,1.156,0,0,0,1.449.684,1.471,1.471,0,0,0,.58-.243c.171-.135.246-.083.352.082.32.5.33.5-.2.752a2.482,2.482,0,0,1-1.789.151,2.077,2.077,0,0,1-1.233-2.773,1.917,1.917,0,0,1,2.6-1.095,2.035,2.035,0,0,1,1.08,2.114c-.012.164-.136.114-.225.115C1494.671,628.342,1494.259,628.339,1493.847,628.339Zm-1.416-.688h1.955c-.1-.592-.409-.894-.916-.917C1492.936,626.71,1492.582,627.012,1492.431,627.651Z" fill="#fff"/>
      <path id="Path_206" data-name="Path 206" d="M1485.446,630.057a2.846,2.846,0,0,1-1.492-.346c-.18-.1-.231-.179-.108-.373.261-.415.25-.421.711-.228a2.242,2.242,0,0,0,1.341.12c.215-.045.422-.153.411-.409-.009-.226-.214-.3-.4-.334-.337-.068-.682-.1-1.016-.182a1.1,1.1,0,0,1-.964-1.4,1.123,1.123,0,0,1,.862-.842,3.11,3.11,0,0,1,2.146.187c.174.079.188.159.1.323-.251.466-.241.462-.722.308a2.02,2.02,0,0,0-1.081-.106c-.225.051-.419.156-.418.4s.233.3.428.341a7.959,7.959,0,0,1,1.113.205,1.054,1.054,0,0,1,.865,1.009,1.154,1.154,0,0,1-.78,1.162A2.172,2.172,0,0,1,1485.446,630.057Z" fill="#fff"/>
      <path id="Path_207" data-name="Path 207" d="M1488.556,627.922v-.435c0-.6,0-.608-.6-.633-.164-.007-.223-.058-.2-.214a.684.684,0,0,0,0-.1c0-.493,0-.509.484-.488.262.011.359-.064.322-.326a2.678,2.678,0,0,1,0-.4c.008-.532-.072-.461.457-.461.5,0,.437-.064.439.445,0,.736,0,.736.738.736h.1c.546,0,.535,0,.544.534,0,.215-.052.311-.273.27a.13.13,0,0,0-.034,0c-.353.02-.838-.151-1.022.067s-.049.678-.053,1.033c0,.244-.007.49,0,.734a.507.507,0,0,0,.659.541.782.782,0,0,0,.29-.07c.3-.187.4-.056.482.24.111.415.115.439-.3.573a2.308,2.308,0,0,1-1.024.077,1.162,1.162,0,0,1-1-1.287C1488.549,628.479,1488.556,628.2,1488.556,627.922Z" fill="#fff"/>
      <path id="Path_208" data-name="Path 208" d="M1501.033,630.059a2.055,2.055,0,0,1-.658-4.032,2.246,2.246,0,0,1,1.86.273c.128.087.171.159.072.288a.663.663,0,0,0-.085.143c-.132.306-.266.4-.625.2a1.181,1.181,0,0,0-1.669.463,1.3,1.3,0,0,0,.461,1.7,1.332,1.332,0,0,0,1.339-.066c.193-.109.281-.117.4.1.3.539.3.569-.288.8A1.874,1.874,0,0,1,1501.033,630.059Z" fill="#fff"/>
      <path id="Path_209" data-name="Path 209" d="M1508.819,626.416a1.347,1.347,0,0,1,1.377-.43c.174.026.273.09.183.284a.838.838,0,0,0-.062.19c-.059.3-.158.435-.526.342a.73.73,0,0,0-.942.688,12.868,12.868,0,0,0-.035,2.133c0,.311-.094.367-.374.355-.5-.022-.5-.006-.5-.523,0-1.047.007-2.094,0-3.14,0-.222.06-.3.277-.271a.835.835,0,0,0,.234,0C1508.714,626.005,1508.882,626.066,1508.819,626.416Z" fill="#fff"/>
      <path id="Path_210" data-name="Path 210" d="M1497.047,626.405a1.368,1.368,0,0,1,1.382-.419c.179.027.263.1.171.287a.748.748,0,0,0-.062.19c-.056.3-.16.427-.525.34-.585-.139-.967.257-.979.946-.011.644-.013,1.29,0,1.934.006.234-.059.3-.294.3-.582-.013-.582,0-.582-.567,0-1.023.01-2.046-.008-3.069,0-.258.072-.337.313-.3a.73.73,0,0,0,.233,0C1496.966,626,1497.106,626.082,1497.047,626.405Z" fill="#fff"/>
      <path id="Path_211" data-name="Path 211" d="M1516.513,629.77a.4.4,0,0,1-.8.02.365.365,0,0,1,.392-.4A.368.368,0,0,1,1516.513,629.77Z" fill="#fff"/>
      <path id="Path_212" data-name="Path 212" d="M1516.232,616.7c.034-.062.067-.117.095-.174s.068-.118.15-.1.067.1.074.161c.038.357-.077.487-.374.327-.18-.1-.161.036-.226.077-.093-.057-.063-.146-.054-.211.016-.119-.086-.3.074-.344S1516.088,616.622,1516.232,616.7Z" fill="#f69d1f"/>
      <path id="Path_213" data-name="Path 213" d="M1515.533,617.011c-.145-.166.068-.46-.33-.537a.967.967,0,0,1,.613-.008C1515.466,616.529,1515.682,616.843,1515.533,617.011Z" fill="#f69d1f"/>
      <path id="Path_214" data-name="Path 214" d="M1493.226,619.428a19.635,19.635,0,0,1-1.56-1.452,14.608,14.608,0,0,1-3.1-4.974,14.584,14.584,0,0,1,1.229-12.721,14.887,14.887,0,0,1,2.251-2.84,9.226,9.226,0,0,1,1.182-1.022c.2.033.32.2.456.32a14.979,14.979,0,0,1,3.166,3.79,14.136,14.136,0,0,1,1.826,5.113,14.484,14.484,0,0,1,.115,3.416,15.215,15.215,0,0,1-.827,3.856,14.269,14.269,0,0,1-2.621,4.492A12.887,12.887,0,0,1,1493.226,619.428Z" fill="#f16122"/>
    </g>
  </g>
</svg>
