<svg xmlns="http://www.w3.org/2000/svg"  viewBox="0 0 68.395 47.022">
  <g id="paymentIcon" transform="translate(-3872.128 -870.396)">
    <path id="Path_249" data-name="Path 249" d="M3933.042,870.4h-53.433a7.489,7.489,0,0,0-7.481,7.481v32.06a7.489,7.489,0,0,0,7.481,7.481h53.433a7.489,7.489,0,0,0,7.481-7.481v-32.06A7.489,7.489,0,0,0,3933.042,870.4Zm-53.433,4.275h53.433a3.21,3.21,0,0,1,3.207,3.206v4.275H3876.4v-4.275A3.209,3.209,0,0,1,3879.609,874.671Zm53.433,38.472h-53.433a3.209,3.209,0,0,1-3.206-3.206V886.426h59.846v23.511A3.21,3.21,0,0,1,3933.042,913.143Z" fill="#FF3C40"/>
    <path id="Path_250" data-name="Path 250" d="M3887.089,906.731h-2.137a2.137,2.137,0,0,1-2.137-2.137v-2.138a2.137,2.137,0,0,1,2.137-2.137h2.137a2.138,2.138,0,0,1,2.138,2.137v2.138A2.138,2.138,0,0,1,3887.089,906.731Z" fill="#e83131"/>
  </g>
</svg>
