<svg xmlns="http://www.w3.org/2000/svg" viewBox="0 0 54.698 65.562">
  <g id="profileIcon" transform="translate(-3872.302 -667.126)">
    <path id="Path_247" data-name="Path 247" d="M3899.237,698.708a15.794,15.794,0,1,0-11.165-4.626A15.284,15.284,0,0,0,3899.237,698.708Zm-8.448-24.239a11.943,11.943,0,1,1-3.5,8.447A11.413,11.413,0,0,1,3890.789,674.469Z" fill="#fff"/>
    <path id="Path_248" data-name="Path 248" d="M3926.867,717.54a38.7,38.7,0,0,0-.531-4.143,32.458,32.458,0,0,0-1.019-4.165,20.6,20.6,0,0,0-1.712-3.884,14.625,14.625,0,0,0-2.582-3.365,11.385,11.385,0,0,0-3.709-2.331,12.828,12.828,0,0,0-4.735-.856,4.8,4.8,0,0,0-2.566,1.088c-.769.5-1.669,1.082-2.674,1.724a15.3,15.3,0,0,1-3.459,1.524,13.446,13.446,0,0,1-8.462,0,15.282,15.282,0,0,1-3.457-1.524c-.995-.636-1.9-1.216-2.676-1.725a4.805,4.805,0,0,0-2.566-1.088,12.805,12.805,0,0,0-4.734.858,11.36,11.36,0,0,0-3.709,2.33,14.644,14.644,0,0,0-2.581,3.365,20.651,20.651,0,0,0-1.713,3.885,32.816,32.816,0,0,0-1.018,4.164,38.584,38.584,0,0,0-.531,4.144c-.087,1.252-.131,2.555-.131,3.872a10.887,10.887,0,0,0,3.233,8.236,11.641,11.641,0,0,0,8.332,3.039h31.568a11.64,11.64,0,0,0,8.331-3.039,10.882,10.882,0,0,0,3.234-8.237C3927,720.091,3926.955,718.788,3926.867,717.54Zm-5.75,9.325a7.835,7.835,0,0,1-5.683,1.981h-31.567a7.837,7.837,0,0,1-5.683-1.98,7.108,7.108,0,0,1-2.04-5.453c0-1.229.04-2.442.121-3.606a35.139,35.139,0,0,1,.48-3.731,28.894,28.894,0,0,1,.9-3.672,16.849,16.849,0,0,1,1.394-3.159,10.88,10.88,0,0,1,1.9-2.486,7.546,7.546,0,0,1,2.468-1.534,8.85,8.85,0,0,1,3.025-.584c.135.072.374.208.762.461.79.515,1.7,1.1,2.707,1.745a19.05,19.05,0,0,0,4.342,1.94,17.284,17.284,0,0,0,10.826,0,19.078,19.078,0,0,0,4.345-1.942c1.03-.658,1.914-1.229,2.7-1.744.388-.252.628-.389.762-.461a8.859,8.859,0,0,1,3.027.584,7.566,7.566,0,0,1,2.467,1.534,10.8,10.8,0,0,1,1.9,2.487,16.7,16.7,0,0,1,1.394,3.158,28.627,28.627,0,0,1,.9,3.671,35.252,35.252,0,0,1,.48,3.732h0c.081,1.16.123,2.373.123,3.605A7.1,7.1,0,0,1,3921.117,726.865Z" fill="#fff"/>
  </g>
</svg>
