<svg xmlns="http://www.w3.org/2000/svg" viewBox="0 0 143.667 160.777">
  <g id="review" transform="translate(-1416.333 -6294.258)">
    <path id="Path_358" data-name="Path 358" d="M1554.037,6389.878h0a5.766,5.766,0,0,1-5.771-5.765c0-13.755,0-48.548,0-66.821,0-7.949-3.362-11.37-11.214-11.373q-48.857-.015-97.713,0c-7.932,0-11.271,3.354-11.272,11.268q0,57.426,0,114.85c0,8.093,3.321,11.366,11.548,11.369,19.567.006,61.586,0,63.268,0v11.621c-1.225,0-44.367.02-64.663-.006-13.49-.018-22.28-9.169-21.87-22.9,1.139-38.114,2.324-76.269.039-114.332-.832-13.865,8.06-23.432,21.727-23.474,23.456-.072,46.912-.022,70.368-.021,10.087,0,20.175-.1,30.261.029,12.17.152,21.122,8.764,21.209,20.824.139,19.4-.058,55.116-.145,69A5.769,5.769,0,0,1,1554.037,6389.878Z" fill="#ff3c40"/>
    <path id="Path_359" data-name="Path 359" d="M1535.349,6440.3c-16.293,9.928-30.675,2.189-38.04-8.176a28.7,28.7,0,0,1,4.186-37.7c11.243-10.315,28.191-8.236,37.53-.747,10.549,8.459,14.986,24.6,6.3,37.491,4.008,4.509,7.8,8.9,11.731,13.152,2.776,3,3.228,6.712.836,9-2.551,2.435-5.353,2.009-8.591-.922C1544.9,6448.4,1540.332,6444.6,1535.349,6440.3Zm3.507-23.633c-.124-10.782-7.94-17.493-17.7-18.053-9.05-.518-17.3,7.966-17.461,17.027-.183,10.2,7.571,18.409,17.5,18.517A17.492,17.492,0,0,0,1538.856,6416.666Z" fill="#ff3c40"/>
    <path id="Path_360" data-name="Path 360" d="M1487.005,6323.243c11.534,0,23.067-.023,34.6.025a12.929,12.929,0,0,1,4.262.623c2.88,1.035,4.08,3.435,3.9,6.32a5.638,5.638,0,0,1-4.854,5.568,22.834,22.834,0,0,1-4.34.328q-33.689.029-67.378.012c-.85,0-1.7.029-2.548-.044-4.006-.343-6.6-2.859-6.609-6.372-.008-3.625,2.8-6.4,6.908-6.429C1462.968,6323.193,1474.987,6323.245,1487.005,6323.243Z" fill="#ff3c40"/>
    <path id="Path_361" data-name="Path 361" d="M1475.854,6369.92c-8.142,0-16.283.023-24.424-.009-4.358-.017-7.346-2.618-7.39-6.32-.046-3.81,2.7-6.394,7.261-6.413q24.789-.1,49.577,0c4.422.018,7.455,2.865,7.277,6.445-.187,3.733-3.181,6.278-7.513,6.292C1492.379,6369.938,1484.116,6369.92,1475.854,6369.92Z" fill="#ff3c40"/>
    <path id="Path_362" data-name="Path 362" d="M1463.532,6400.554c-4.124,0-8.248.04-12.371-.012-4.081-.051-7-2.646-7.121-6.213-.124-3.671,2.5-6.447,6.756-6.524q12.912-.233,25.833,0c4.2.071,6.98,2.961,6.788,6.492-.195,3.6-3.116,6.2-7.149,6.249C1472.023,6400.594,1467.778,6400.554,1463.532,6400.554Z" fill="#ff3c40"/>
  </g>
</svg>
