<svg xmlns="http://www.w3.org/2000/svg" width="37" height="37" viewBox="0 0 87 87">
  <g id="safe" transform="translate(-5176.663 -7301)">
    <rect id="Rectangle_205" data-name="Rectangle 205" width="87" height="87" rx="17.285" transform="translate(5176.663 7301)" fill="#f6f8fa"/>
    <g id="Group_333" data-name="Group 333">
      <g id="Group_332" data-name="Group 332">
        <g id="Group_327" data-name="Group 327">
          <g id="Group_326" data-name="Group 326">
            <path id="Path_465" data-name="Path 465" d="M5241.109,7322.338l-20.378-5.956-.042-.012a2.075,2.075,0,0,0-1.052,0l-.021.006-20.4,5.962a3.465,3.465,0,0,0-2.553,3.34v29.054a10.049,10.049,0,0,0,5.5,8.99l13.343,7.843.093.051a10.17,10.17,0,0,0,9.13,0l.047-.024,13.389-7.87a10.048,10.048,0,0,0,5.5-8.989v-29.055A3.465,3.465,0,0,0,5241.109,7322.338Zm-.751,32.394h0a6.76,6.76,0,0,1-3.732,6.065l-.047.024-13.385,7.867a6.858,6.858,0,0,1-6.063,0l-13.339-7.84-.093-.051a6.76,6.76,0,0,1-3.732-6.065v-29.054a.157.157,0,0,1,.117-.151l20.079-5.868,20.036,5.856.042.012a.156.156,0,0,1,.117.151v29.054Z" fill="#666"/>
          </g>
        </g>
        <g id="Group_329" data-name="Group 329">
          <g id="Group_328" data-name="Group 328">
            <path id="Path_466" data-name="Path 466" d="M5220.163,7329.2a14.155,14.155,0,1,0,14.155,14.155A14.171,14.171,0,0,0,5220.163,7329.2Zm0,25a10.85,10.85,0,1,1,10.85-10.85A10.863,10.863,0,0,1,5220.163,7354.205Z" fill="#666"/>
          </g>
        </g>
        <g id="Group_331" data-name="Group 331">
          <g id="Group_330" data-name="Group 330">
            <path id="Path_467" data-name="Path 467" d="M5226.223,7339.111a1.652,1.652,0,0,0-2.335-.09l-5.58,5.163-1.824-1.824a1.652,1.652,0,0,0-2.337,2.337l2.948,2.948c.014.014.029.026.044.04l.061.055.07.055c.022.016.043.033.065.048s.051.032.076.048.044.027.067.039.055.028.083.041.043.021.065.03.062.023.093.034l.062.022c.033.01.067.017.1.026l.057.014c.038.007.077.012.115.017l.047.007c.054,0,.108.008.162.008h0c.051,0,.1,0,.154-.008l.045-.006.109-.015.056-.013c.032-.008.063-.014.1-.024l.062-.02.085-.03.065-.028.079-.037.065-.036.072-.043.065-.044c.023-.016.045-.032.067-.05s.041-.033.061-.051a.454.454,0,0,0,.041-.035l6.747-6.243A1.652,1.652,0,0,0,5226.223,7339.111Z" fill="#666"/>
          </g>
        </g>
      </g>
    </g>
  </g>
</svg>
