<svg xmlns="http://www.w3.org/2000/svg" viewBox="0 0 68.395 47.022">
  <g id="visa" transform="translate(-1459.023 -344.053)">
    <path id="Rectangle_58" data-name="Rectangle 58" d="M7.481,0H60.915A7.48,7.48,0,0,1,68.4,7.48V39.541a7.481,7.481,0,0,1-7.481,7.481H7.48A7.48,7.48,0,0,1,0,39.541V7.481A7.481,7.481,0,0,1,7.481,0Z" transform="translate(1459.023 344.053)" fill="#293688"/>
    <g id="Group_100" data-name="Group 100">
      <path id="Path_184" data-name="Path 184" d="M1486.448,374.861l2.58-14.513h4.031l-2.5,14.513Z" fill="#fff"/>
      <path id="Path_185" data-name="Path 185" d="M1486.448,374.861l3.306-14.513h3.306l-2.5,14.513Z" fill="#fff"/>
      <path id="Path_186" data-name="Path 186" d="M1505.153,360.509a10.233,10.233,0,0,0-3.708-.645c-4.032,0-6.934,2.016-6.934,4.919,0,2.176,2.016,3.305,3.628,4.031s2.1,1.209,2.1,1.854c0,.968-1.29,1.451-2.418,1.451a8.751,8.751,0,0,1-3.87-.806l-.565-.242-.564,3.306a13.072,13.072,0,0,0,4.595.806c4.274,0,7.1-2.015,7.1-5.079,0-1.693-1.048-2.983-3.466-4.031-1.452-.726-2.339-1.129-2.339-1.855,0-.645.726-1.29,2.339-1.29a7.382,7.382,0,0,1,3.063.565l.4.161.645-3.145Z" fill="#fff"/>
      <path id="Path_187" data-name="Path 187" d="M1505.153,360.509a10.233,10.233,0,0,0-3.708-.645c-4.032,0-6.208,2.016-6.208,4.919a4.215,4.215,0,0,0,2.9,4.031c1.613.725,2.1,1.209,2.1,1.854,0,.968-1.29,1.451-2.418,1.451a8.751,8.751,0,0,1-3.87-.806l-.565-.242-.564,3.306a13.072,13.072,0,0,0,4.595.806c4.274,0,7.1-2.015,7.1-5.079,0-1.693-1.048-2.983-3.466-4.031-1.452-.726-2.339-1.129-2.339-1.855,0-.645.726-1.29,2.339-1.29a7.382,7.382,0,0,1,3.063.565l.4.161.645-3.145Z" fill="#fff"/>
      <path id="Path_188" data-name="Path 188" d="M1512.087,360.348c-.967,0-1.693.081-2.1,1.048l-6.047,13.465h4.354l.806-2.419h5.16l.484,2.419h3.87l-3.386-14.513Zm-1.854,9.675c.242-.725,1.612-4.273,1.612-4.273s.323-.887.565-1.451l.242,1.37s.806,3.629.967,4.435h-3.386Z" fill="#fff"/>
      <path id="Path_189" data-name="Path 189" d="M1513.055,360.348c-.968,0-1.693.081-2.1,1.048l-7.014,13.465h4.354l.806-2.419h5.16l.484,2.419h3.87l-3.386-14.513Zm-2.822,9.675c.322-.806,1.612-4.273,1.612-4.273s.323-.887.565-1.451l.242,1.37s.806,3.629.967,4.435h-3.386Z" fill="#fff"/>
      <path id="Path_190" data-name="Path 190" d="M1479.031,370.507l-.4-2.1a11.69,11.69,0,0,0-5.644-6.37l3.628,12.9h4.354l6.531-14.512h-4.354Z" fill="#fff"/>
      <path id="Path_191" data-name="Path 191" d="M1479.031,370.507l-.4-2.1a11.69,11.69,0,0,0-5.644-6.37l3.628,12.9h4.354l6.531-14.512h-3.548Z" fill="#fff"/>
      <path id="Path_192" data-name="Path 192" d="M1467.824,360.348l.726.161c5.16,1.21,8.707,4.274,10.078,7.9l-1.451-6.853c-.242-.968-.968-1.21-1.855-1.21Z" fill="#fff"/>
      <path id="Path_193" data-name="Path 193" d="M1467.824,360.348h0c5.16,1.21,9.433,4.354,10.8,7.982l-1.371-5.724a1.968,1.968,0,0,0-1.935-1.532Z" fill="#fff"/>
      <path id="Path_194" data-name="Path 194" d="M1467.824,360.348h0c5.16,1.21,9.433,4.354,10.8,7.982l-.968-3.144a2.842,2.842,0,0,0-1.693-2.338Z" fill="#fff"/>
      <g id="Group_99" data-name="Group 99">
        <path id="Path_195" data-name="Path 195" d="M1483.062,370.023l-2.741-2.741-1.29,3.064-.323-2.016a11.682,11.682,0,0,0-5.643-6.369l3.628,12.9h4.354Z" fill="#fff"/>
        <path id="Path_196" data-name="Path 196" d="M1490.56,374.861l-3.467-3.548-.645,3.548Z" fill="#fff"/>
        <path id="Path_197" data-name="Path 197" d="M1499.832,369.862h0c.323.322.484.564.4.887,0,.967-1.29,1.451-2.418,1.451a8.765,8.765,0,0,1-3.87-.806l-.565-.242-.564,3.306a13.072,13.072,0,0,0,4.595.806c2.58,0,4.677-.726,5.886-2.016Z" fill="#fff"/>
        <path id="Path_198" data-name="Path 198" d="M1504.508,374.861h3.79l.806-2.419h5.16l.484,2.419h3.87l-1.371-5.886-4.837-4.676.242,1.29s.806,3.628.967,4.434h-3.386c.322-.806,1.612-4.273,1.612-4.273s.323-.887.565-1.451" fill="#fff"/>
      </g>
    </g>
  </g>
</svg>
