<svg xmlns="http://www.w3.org/2000/svg" viewBox="0 0 68.396 61.206">
  <g id="wallet" transform="translate(-4763.209 -2626.397)">
    <path id="Path_520" data-name="Path 520" d="M4824.865,2634.914a9.247,9.247,0,0,0-9.206-8.517h-43.213a9.247,9.247,0,0,0-9.237,9.236v42.734a9.247,9.247,0,0,0,9.237,9.236h49.922a9.247,9.247,0,0,0,9.237-9.236V2643.8a9.252,9.252,0,0,0-6.74-8.89Zm-52.419-4.2h43.214a4.93,4.93,0,0,1,4.8,3.857h-48.018a9.179,9.179,0,0,0-4.922,1.426v-.361A4.928,4.928,0,0,1,4772.446,2630.711Zm49.922,52.578h-49.922a4.928,4.928,0,0,1-4.922-4.922V2643.8a4.927,4.927,0,0,1,4.922-4.921h49.922a4.927,4.927,0,0,1,4.922,4.921v7.529h-13.757a9.886,9.886,0,0,0,0,19.773h13.757v7.261a4.928,4.928,0,0,1-4.922,4.922Zm4.922-16.5h-13.757a5.572,5.572,0,1,1,0-11.144h13.757Z" fill="#e83131"/>
    <circle id="Ellipse_69" data-name="Ellipse 69" cx="2.246" cy="2.246" r="2.246" transform="translate(4812.088 2659.137)" fill="#e83131"/>
  </g>
</svg>
